<svg width="141" height="141" viewBox="0 0 141 141" fill="none" xmlns="http://www.w3.org/2000/svg">
<circle cx="70.5" cy="70.5" r="69" fill="white" stroke="#EBEBEB" stroke-width="3"/>
<path d="M48.2364 58.7162C48.2065 58.3711 48.2486 58.0234 48.3601 57.6954C48.4716 57.3673 48.6501 57.066 48.8842 56.8106C49.1183 56.5552 49.403 56.3513 49.7201 56.2117C50.0373 56.0722 50.3799 56.0001 50.7264 56H55.5002C56.1632 56 56.7991 56.2634 57.2679 56.7322C57.7368 57.2011 58.0002 57.837 58.0002 58.5V82.25C58.0002 82.913 57.7368 83.5489 57.2679 84.0178C56.7991 84.4866 56.1632 84.75 55.5002 84.75H52.7927C52.167 84.7501 51.5639 84.5157 51.1027 84.0928C50.6415 83.67 50.3555 83.0896 50.3014 82.4662L48.2364 58.7162ZM65.5002 57.7187C65.5002 56.6737 66.1502 55.7387 67.0939 55.2937C69.1552 54.3212 72.6664 52.3675 74.2502 49.7262C76.2914 46.3212 76.6764 40.17 76.7389 38.7612C76.7477 38.5637 76.7427 38.3662 76.7689 38.1712C77.1077 35.73 81.8189 38.5812 83.6252 41.5962C84.6064 43.2312 84.7314 45.38 84.6289 47.0587C84.5177 48.8537 83.9914 50.5875 83.4752 52.31L82.3752 55.9812H95.9464C96.3327 55.9812 96.7137 56.0707 97.0596 56.2427C97.4054 56.4146 97.7068 56.6644 97.9399 56.9724C98.173 57.2803 98.3316 57.6381 98.4032 58.0177C98.4748 58.3973 98.4576 58.7882 98.3527 59.16L91.6402 82.93C91.492 83.4542 91.1766 83.9157 90.742 84.2443C90.3075 84.5728 89.7775 84.7504 89.2327 84.75H68.0002C67.3371 84.75 66.7012 84.4866 66.2324 84.0178C65.7636 83.5489 65.5002 82.913 65.5002 82.25V57.7187Z" fill="black" stroke="black" stroke-width="2" stroke-linecap="round" stroke-linejoin="round"/>
</svg>
