<svg width="141" height="141" viewBox="0 0 141 141" fill="none" xmlns="http://www.w3.org/2000/svg">
<circle cx="70.5" cy="70.5" r="69" fill="white" stroke="#EBEBEB" stroke-width="3"/>
<path d="M70.0002 98.2708L65.771 94.4208C50.7502 80.8 40.8335 71.7875 40.8335 60.7917C40.8335 51.7792 47.8918 44.75 56.8752 44.75C61.9502 44.75 66.821 47.1125 70.0002 50.8167C73.1793 47.1125 78.0502 44.75 83.1252 44.75C92.1085 44.75 99.1668 51.7792 99.1668 60.7917C99.1668 71.7875 89.2502 80.8 74.2293 94.4208L70.0002 98.2708Z" fill="black"/>
<path d="M82.0335 67.6802C81.7517 67.0104 81.2835 66.5275 80.6792 66.2842L80.6711 66.2812C80.396 66.1735 80.1032 66.1184 79.8078 66.1187H79.7753C78.392 66.1395 76.9798 67.3151 76.2617 69.0442C75.7351 70.3087 75.6747 71.6686 76.1002 72.6822C76.3816 73.3525 76.8508 73.8354 77.4576 74.0787L77.4642 74.0812C77.7393 74.1889 78.0321 74.244 78.3275 74.2437C79.724 74.2437 81.1509 73.0681 81.8822 71.3162C82.4022 70.0532 82.4596 68.6943 82.0335 67.6802ZM76.5065 75.1379C75.7087 74.6586 74.9546 74.2051 74.462 73.3906C73.1031 71.1359 72.2825 69.7749 70.1309 69.7749C67.9793 69.7749 67.1567 71.1359 65.7947 73.3906C65.3011 74.2061 64.5455 74.6601 63.7452 75.1415C62.8275 75.693 61.8795 76.2628 61.4702 77.384C61.311 77.7882 61.2309 78.2192 61.234 78.6535C61.234 80.4791 62.6559 81.9645 64.4028 81.9645C65.3042 81.9645 66.2634 81.6522 67.2785 81.3216C68.2545 81.0037 69.2636 80.6751 70.136 80.6751C71.0084 80.6751 72.0149 81.0037 72.9874 81.3216C74.0004 81.6501 74.9551 81.9624 75.859 81.9624C77.6034 81.9624 79.0227 80.4771 79.0227 78.6515C79.0241 78.2168 78.9423 77.7859 78.7815 77.382C78.3722 76.2597 77.4236 75.6894 76.5065 75.1379ZM64.7481 67.99C65.3524 68.7481 66.1192 69.1656 66.9073 69.1656C67.0149 69.1655 67.1223 69.1576 67.2288 69.1417C68.8726 68.9 69.8968 66.8941 69.5606 64.5714C69.42 63.5949 69.0442 62.6854 68.5059 62.011C67.9026 61.2544 67.1348 60.8374 66.3472 60.8374C66.2396 60.8375 66.1322 60.8454 66.0258 60.8613C64.382 61.103 63.3577 63.1089 63.6939 65.4316C63.834 66.4066 64.2098 67.3151 64.7481 67.99ZM73.0336 69.1417C73.14 69.1576 73.2474 69.1655 73.355 69.1656C74.1436 69.1656 74.9099 68.7481 75.5142 67.99C76.052 67.3151 76.4258 66.4066 76.5679 65.4306C76.9041 63.1089 75.8799 61.103 74.2361 60.8603C74.1297 60.8444 74.0222 60.8365 73.9146 60.8364C73.127 60.8374 72.3592 61.2544 71.7559 62.011C71.2176 62.6854 70.8418 63.5949 70.7017 64.5724C70.3655 66.8941 71.3898 68.9 73.0336 69.1417ZM62.7976 74.0812L62.8047 74.0787C63.4105 73.8354 63.8792 73.353 64.16 72.6832C64.5856 71.6676 64.5257 70.3092 64.0001 69.0447C63.2724 67.2948 61.8459 66.1187 60.451 66.1187C60.1556 66.1183 59.8627 66.1734 59.5877 66.2812L59.5806 66.2837C58.9763 66.5249 58.5076 67.0094 58.2268 67.6792C57.8012 68.6948 57.8611 70.0532 58.3867 71.3177C59.1144 73.0676 60.5409 74.2437 61.9358 74.2437C62.2307 74.2439 62.523 74.1888 62.7976 74.0812Z" fill="white"/>
</svg>
