<svg width="141" height="141" viewBox="0 0 141 141" fill="none" xmlns="http://www.w3.org/2000/svg">
<circle cx="70.5" cy="70.5" r="69" fill="white" stroke="#EBEBEB" stroke-width="3"/>
<path d="M44.5331 42.2914C44.5627 41.7 44.8185 41.1426 45.2476 40.7345C45.6767 40.3265 46.2463 40.099 46.8385 40.0991H53.4131C53.9892 40.0991 54.5445 40.3145 54.9698 40.7031C55.3951 41.0917 55.6597 41.6254 55.7115 42.1991L59.4615 84.4645V67.6922H64.0769V60.7691C64.0787 60.3523 64.1931 59.9437 64.408 59.5866C64.6229 59.2295 64.9303 58.9371 65.2978 58.7404C65.6653 58.5436 66.0791 58.4499 66.4954 58.469C66.9118 58.4882 67.3152 58.6195 67.6631 58.8491L80.93 67.6922H82.5385V60.7691C82.5402 60.3523 82.6546 59.9437 82.8695 59.5866C83.0844 59.2295 83.3919 58.9371 83.7593 58.7404C84.1268 58.5436 84.5406 58.4499 84.957 58.469C85.3733 58.4882 85.7768 58.6195 86.1246 58.8491L99.9708 68.0799C100.287 68.2904 100.547 68.5758 100.726 68.9108C100.906 69.2457 101 69.6199 101 69.9999V97.6922C101 98.3042 100.757 98.8912 100.324 99.324C99.8913 99.7568 99.3043 99.9999 98.6923 99.9999H43.2615C41.9854 99.9999 41.0715 99.1876 41.0715 97.9137C41.0715 97.7153 44.5331 42.2914 44.5331 42.2914ZM89.4615 72.3076V79.2307H94.0769V72.3076H89.4615ZM77.9231 72.3076V79.2307H82.5385V72.3076H77.9231ZM66.3846 72.3076V79.2307H71V72.3076H66.3846ZM89.4615 83.846V90.7691H94.0769V83.846H89.4615ZM77.9231 83.846V90.7691H82.5385V83.846H77.9231ZM66.3846 83.846V90.7691H71V83.846H66.3846Z" fill="black"/>
</svg>
