<svg width="34" height="34" viewBox="0 0 34 34" fill="none" xmlns="http://www.w3.org/2000/svg">
<path d="M17 0C19.2543 0 21.4163 0.895533 23.0104 2.48959C24.6045 4.08365 25.5 6.24566 25.5 8.5C25.5 10.7543 24.6045 12.9163 23.0104 14.5104C21.4163 16.1045 19.2543 17 17 17C14.7457 17 12.5837 16.1045 10.9896 14.5104C9.39553 12.9163 8.5 10.7543 8.5 8.5C8.5 6.24566 9.39553 4.08365 10.9896 2.48959C12.5837 0.895533 14.7457 0 17 0ZM17 4.25C15.8728 4.25 14.7918 4.69777 13.9948 5.4948C13.1978 6.29183 12.75 7.37283 12.75 8.5C12.75 9.62717 13.1978 10.7082 13.9948 11.5052C14.7918 12.3022 15.8728 12.75 17 12.75C18.1272 12.75 19.2082 12.3022 20.0052 11.5052C20.8022 10.7082 21.25 9.62717 21.25 8.5C21.25 7.37283 20.8022 6.29183 20.0052 5.4948C19.2082 4.69777 18.1272 4.25 17 4.25ZM17 19.125C22.6737 19.125 34 21.9513 34 27.625V34H0V27.625C0 21.9513 11.3263 19.125 17 19.125ZM17 23.1625C10.6888 23.1625 4.0375 26.265 4.0375 27.625V29.9625H29.9625V27.625C29.9625 26.265 23.3113 23.1625 17 23.1625Z" fill="white"/>
</svg>
