<svg width="43" height="43" viewBox="0 0 43 43" fill="none" xmlns="http://www.w3.org/2000/svg">
<path d="M13.9747 3.58325H29.0247C34.758 3.58325 39.4163 8.24159 39.4163 13.9749V29.0249C39.4163 31.781 38.3215 34.4241 36.3727 36.3729C34.4239 38.3218 31.7807 39.4166 29.0247 39.4166H13.9747C8.24134 39.4166 3.58301 34.7583 3.58301 29.0249V13.9749C3.58301 11.2189 4.67784 8.57572 6.62666 6.6269C8.57547 4.67809 11.2186 3.58325 13.9747 3.58325ZM13.6163 7.16659C11.9057 7.16659 10.2651 7.84614 9.0555 9.05575C7.84589 10.2654 7.16634 11.9059 7.16634 13.6166V29.3833C7.16634 32.9487 10.0509 35.8333 13.6163 35.8333H29.383C31.0937 35.8333 32.7342 35.1537 33.9438 33.9441C35.1535 32.7345 35.833 31.0939 35.833 29.3833V13.6166C35.833 10.0512 32.9484 7.16659 29.383 7.16659H13.6163ZM30.9059 9.85408C31.4999 9.85408 32.0695 10.09 32.4895 10.51C32.9096 10.93 33.1455 11.4997 33.1455 12.0937C33.1455 12.6876 32.9096 13.2573 32.4895 13.6773C32.0695 14.0973 31.4999 14.3333 30.9059 14.3333C30.3119 14.3333 29.7423 14.0973 29.3223 13.6773C28.9023 13.2573 28.6663 12.6876 28.6663 12.0937C28.6663 11.4997 28.9023 10.93 29.3223 10.51C29.7423 10.09 30.3119 9.85408 30.9059 9.85408ZM21.4997 12.5416C23.8756 12.5416 26.1542 13.4854 27.8342 15.1654C29.5142 16.8454 30.458 19.124 30.458 21.4999C30.458 23.8758 29.5142 26.1544 27.8342 27.8344C26.1542 29.5144 23.8756 30.4583 21.4997 30.4583C19.1238 30.4583 16.8452 29.5144 15.1652 27.8344C13.4852 26.1544 12.5413 23.8758 12.5413 21.4999C12.5413 19.124 13.4852 16.8454 15.1652 15.1654C16.8452 13.4854 19.1238 12.5416 21.4997 12.5416ZM21.4997 16.1249C20.0741 16.1249 18.707 16.6912 17.699 17.6992C16.691 18.7072 16.1247 20.0744 16.1247 21.4999C16.1247 22.9255 16.691 24.2926 17.699 25.3006C18.707 26.3086 20.0741 26.8749 21.4997 26.8749C22.9252 26.8749 24.2924 26.3086 25.3004 25.3006C26.3084 24.2926 26.8747 22.9255 26.8747 21.4999C26.8747 20.0744 26.3084 18.7072 25.3004 17.6992C24.2924 16.6912 22.9252 16.1249 21.4997 16.1249Z" fill="black"/>
</svg>
