<svg width="84" height="84" viewBox="0 0 84 84" fill="none" xmlns="http://www.w3.org/2000/svg">
<circle cx="42" cy="42" r="42" fill="white"/>
<path d="M66.9558 34.4772C66.3596 33.0604 65.3692 32.0388 64.0909 31.5242L64.0737 31.5178C63.4918 31.29 62.8724 31.1734 62.2475 31.174H62.1788C59.2526 31.2181 56.2652 33.7049 54.7463 37.3626C53.6323 40.0374 53.5045 42.9142 54.4047 45.0583C54.9998 46.4763 55.9924 47.4979 57.276 48.0124L57.29 48.0178C57.8719 48.2456 58.4913 48.3622 59.1162 48.3615C62.0703 48.3615 65.0888 45.8747 66.6357 42.1687C67.7357 39.4971 67.8571 36.6225 66.9558 34.4772ZM55.264 50.2532C53.5764 49.2392 51.9812 48.2799 50.9392 46.5568C48.0646 41.7873 46.3287 38.9084 41.7772 38.9084C37.2258 38.9084 35.4855 41.7873 32.6045 46.5568C31.5603 48.282 29.9619 49.2424 28.2689 50.2607C26.3278 51.4273 24.3222 52.6326 23.4564 55.0045C23.1198 55.8595 22.9502 56.7712 22.9569 57.69C22.9569 61.5519 25.9647 64.6939 29.66 64.6939C31.5668 64.6939 33.596 64.0333 35.7433 63.334C37.808 62.6615 39.9425 61.9665 41.788 61.9665C43.6335 61.9665 45.7626 62.6615 47.8197 63.334C49.9628 64.029 51.9823 64.6897 53.8944 64.6897C57.5843 64.6897 60.5868 61.5476 60.5868 57.6857C60.5898 56.7662 60.4166 55.8546 60.0765 55.0002C59.2107 52.6262 57.2041 51.4198 55.264 50.2532ZM30.3905 35.1325C31.6688 36.7363 33.2909 37.6193 34.9581 37.6193C35.1857 37.6193 35.413 37.6024 35.6381 37.5688C39.1153 37.0575 41.282 32.8144 40.5709 27.9009C40.2733 25.8352 39.4784 23.9112 38.3397 22.4847C37.0636 20.8841 35.4393 20.0021 33.7732 20.0021C33.5456 20.0022 33.3183 20.0191 33.0932 20.0526C29.616 20.564 27.4493 24.8071 28.1604 29.7206C28.4569 31.7831 29.2518 33.7049 30.3905 35.1325ZM47.9175 37.5688C48.1426 37.6024 48.3698 37.6193 48.5974 37.6193C50.2657 37.6193 51.8867 36.7363 53.165 35.1325C54.3026 33.7049 55.0932 31.7831 55.394 29.7185C56.1052 24.8071 53.9385 20.564 50.4612 20.0505C50.2361 20.0169 50.0088 20.0001 49.7812 20C48.1151 20.0021 46.4909 20.8841 45.2147 22.4847C44.076 23.9112 43.2811 25.8352 42.9846 27.903C42.2735 32.8144 44.4402 37.0575 47.9175 37.5688ZM26.2644 48.0178L26.2795 48.0124C27.561 47.4979 28.5525 46.4773 29.1466 45.0604C30.0468 42.912 29.92 40.0385 28.8082 37.3637C27.2688 33.6619 24.2513 31.174 21.3005 31.174C20.6756 31.1731 20.0561 31.2897 19.4743 31.5178L19.4593 31.5231C18.1809 32.0334 17.1894 33.0582 16.5954 34.4751C15.6952 36.6235 15.822 39.4971 16.9338 42.1719C18.4731 45.8736 21.4906 48.3615 24.4415 48.3615C25.0653 48.362 25.6836 48.2454 26.2644 48.0178Z" fill="#F9A149"/>
</svg>
