<svg width="43" height="43" viewBox="0 0 43 43" fill="none" xmlns="http://www.w3.org/2000/svg">
<path d="M21.4997 3.58325C11.6097 3.58325 3.58301 11.6099 3.58301 21.4999C3.58301 31.3899 11.6097 39.4166 21.4997 39.4166C31.3897 39.4166 39.4163 31.3899 39.4163 21.4999C39.4163 11.6099 31.3897 3.58325 21.4997 3.58325ZM29.813 15.7666C29.5443 18.5974 28.3797 25.4774 27.7884 28.6487C27.5376 29.9924 27.0359 30.4403 26.5701 30.4941C25.5309 30.5837 24.7426 29.8133 23.7393 29.1503C22.1626 28.1112 21.2668 27.4662 19.7438 26.4628C17.9701 25.2983 19.1168 24.6533 20.138 23.6141C20.4068 23.3453 24.9934 19.1708 25.083 18.7945C25.0955 18.7375 25.0938 18.6784 25.0782 18.6221C25.0626 18.5659 25.0335 18.5144 24.9934 18.472C24.8859 18.3824 24.7426 18.4183 24.6172 18.4362C24.4559 18.472 21.9476 20.1383 17.0563 23.4349C16.3397 23.9187 15.6947 24.1695 15.1213 24.1516C14.4763 24.1337 13.258 23.7933 12.3443 23.4887C11.2155 23.1303 10.3376 22.9333 10.4093 22.3062C10.4451 21.9837 10.893 21.6612 11.7351 21.3208C16.9668 19.0453 20.4426 17.5403 22.1805 16.8237C27.1613 14.7453 28.1826 14.387 28.8634 14.387C29.0068 14.387 29.3472 14.4228 29.5622 14.602C29.7413 14.7453 29.7951 14.9424 29.813 15.0858C29.7951 15.1933 29.8309 15.5158 29.813 15.7666Z" fill="black"/>
</svg>
