<svg width="33" height="33" viewBox="0 0 33 33" fill="none" xmlns="http://www.w3.org/2000/svg">
<path d="M2.2575 2.2575C4.27167e-07 4.5365 0 8.18075 0 15.48V16.77C0 24.0585 4.27167e-07 27.7027 2.2575 29.9925C4.5365 32.25 8.18075 32.25 15.48 32.25H16.77C24.0585 32.25 27.7027 32.25 29.9925 29.9925C32.25 27.7135 32.25 24.0692 32.25 16.77V15.48C32.25 8.1915 32.25 4.54725 29.9925 2.2575C27.7135 4.27167e-07 24.0692 0 16.77 0H15.48C8.1915 0 4.54725 4.27167e-07 2.2575 2.2575ZM5.4395 9.81475H9.1375C9.25575 15.9637 11.9648 18.5652 14.1147 19.1027V9.81475H17.587V15.1145C19.7048 14.8887 21.9408 12.47 22.6933 9.804H26.1547C25.8723 11.184 25.3084 12.4909 24.4983 13.6432C23.6882 14.7955 22.6492 15.7684 21.4463 16.5012C22.789 17.1693 23.9748 18.1145 24.9254 19.2745C25.876 20.4345 26.5698 21.7829 26.961 23.2307H23.1448C22.3277 20.683 20.2852 18.705 17.587 18.4362V23.2307H17.157C9.804 23.2307 5.6115 18.1997 5.4395 9.81475Z" fill="black"/>
</svg>
