<svg width="36" height="36" viewBox="0 0 36 36" fill="none" xmlns="http://www.w3.org/2000/svg">
<path d="M17.9167 0C8.02667 0 0 8.02667 0 17.9167C0 27.8067 8.02667 35.8333 17.9167 35.8333C27.8067 35.8333 35.8333 27.8067 35.8333 17.9167C35.8333 8.02667 27.8067 0 17.9167 0ZM26.23 12.1833C25.9612 15.0142 24.7967 21.8942 24.2054 25.0654C23.9546 26.4092 23.4529 26.8571 22.9871 26.9108C21.9479 27.0004 21.1596 26.23 20.1562 25.5671C18.5796 24.5279 17.6838 23.8829 16.1608 22.8796C14.3871 21.715 15.5337 21.07 16.555 20.0308C16.8237 19.7621 21.4104 15.5875 21.5 15.2112C21.5124 15.1543 21.5108 15.0951 21.4952 15.0389C21.4796 14.9827 21.4505 14.9312 21.4104 14.8888C21.3029 14.7992 21.1596 14.835 21.0342 14.8529C20.8729 14.8888 18.3646 16.555 13.4733 19.8517C12.7567 20.3354 12.1117 20.5862 11.5383 20.5683C10.8933 20.5504 9.675 20.21 8.76125 19.9054C7.6325 19.5471 6.75458 19.35 6.82625 18.7229C6.86208 18.4004 7.31 18.0779 8.15208 17.7375C13.3837 15.4621 16.8596 13.9571 18.5975 13.2404C23.5783 11.1621 24.5996 10.8037 25.2804 10.8037C25.4237 10.8037 25.7642 10.8396 25.9792 11.0187C26.1583 11.1621 26.2121 11.3592 26.23 11.5025C26.2121 11.61 26.2479 11.9325 26.23 12.1833Z" fill="black"/>
</svg>
