<svg width="22" height="24" viewBox="0 0 22 24" fill="none" xmlns="http://www.w3.org/2000/svg">
<path fill-rule="evenodd" clip-rule="evenodd" d="M9.25171 0.791133C9.44851 0.555037 9.69261 0.362812 9.96827 0.226856C10.2439 0.0909009 10.545 0.014234 10.8521 0.00180037C11.1592 -0.0106332 11.4655 0.0414425 11.7513 0.154669C12.037 0.267895 12.2959 0.439758 12.5111 0.659173L12.6299 0.791133L16.9538 5.97936H20.2363C20.4671 5.97887 20.6953 6.02714 20.9062 6.12099C21.117 6.21485 21.3056 6.35219 21.4597 6.524C21.6137 6.69582 21.7298 6.89824 21.8002 7.11802C21.8706 7.33779 21.8937 7.56996 21.8682 7.79931L21.767 8.64166L21.6571 9.45541L21.5669 10.0646L21.4624 10.7189L21.3436 11.4062L21.2095 12.1188L21.0599 12.8457C20.9808 13.2122 20.8957 13.5784 20.8048 13.9443C20.5614 14.9098 20.2558 15.8586 19.8899 16.7847L19.6469 17.3785L19.4115 17.9152L19.1894 18.3924L19.086 18.6057L18.8122 19.1446C18.4603 19.8154 17.7961 20.2113 17.0934 20.2684L16.9175 20.275H4.95311C4.56867 20.2779 4.19066 20.1763 3.85947 19.9811C3.52828 19.7859 3.25633 19.5043 3.07268 19.1666L2.81756 18.6717L2.61962 18.2648L2.51515 18.0394L2.29522 17.5457C1.793 16.3795 1.38553 15.1748 1.07678 13.9432C1.01708 13.704 0.959899 13.4643 0.905236 13.224L0.749084 12.5114L0.609426 11.8142L0.486263 11.1401L0.376296 10.4946L0.280625 9.88538L0.19925 9.32125L0.10028 8.57018L0.0277019 7.95876L0.00900759 7.79051C-0.0137396 7.57447 0.00670121 7.35606 0.0691409 7.14799C0.131581 6.93992 0.234773 6.74635 0.372714 6.57853C0.510655 6.4107 0.68059 6.27199 0.872635 6.17045C1.06468 6.06891 1.275 6.00657 1.49136 5.98706L1.64091 5.97936H4.92782L9.25171 0.791133ZM8.69858 11.172C8.62419 10.9125 8.45697 10.6895 8.22877 10.5453C8.00057 10.4012 7.72733 10.346 7.46107 10.3903C7.19482 10.4346 6.95415 10.5752 6.7849 10.7855C6.61564 10.9958 6.52963 11.2609 6.54323 11.5305L6.55752 11.658L7.10736 14.957L7.13485 15.0824C7.20924 15.3419 7.37646 15.5649 7.60466 15.7091C7.83285 15.8532 8.1061 15.9084 8.37235 15.8641C8.63861 15.8198 8.87928 15.6791 9.04853 15.4689C9.21778 15.2586 9.3038 14.9935 9.2902 14.7239L9.2759 14.5964L8.72607 11.2974L8.69858 11.172ZM14.4201 10.3934C14.1544 10.3491 13.8816 10.4039 13.6535 10.5474C13.4254 10.6909 13.258 10.9132 13.183 11.172L13.1555 11.2974L12.6057 14.5964C12.5598 14.873 12.6213 15.1568 12.7777 15.3896C12.9341 15.6224 13.1736 15.7866 13.4471 15.8487C13.7206 15.9108 14.0075 15.866 14.2491 15.7236C14.4907 15.5812 14.6687 15.3518 14.7467 15.0824L14.7742 14.957L15.3241 11.658C15.3718 11.3705 15.3033 11.0758 15.1339 10.8386C14.9644 10.6015 14.7076 10.4414 14.4201 10.3934ZM10.9408 2.19871L7.79025 5.97936H14.0913L10.9408 2.19871Z" fill="white"/>
</svg>
