<svg width="141" height="141" viewBox="0 0 141 141" fill="none" xmlns="http://www.w3.org/2000/svg">
<circle cx="70.5" cy="70.5" r="69" fill="white" stroke="#EBEBEB" stroke-width="3"/>
<path d="M37.6302 74.3267C37.1746 74.3267 36.7935 74.1667 36.4869 73.8468C36.1802 73.5267 36.0269 73.1301 36.0269 72.6567C36.0269 72.1834 36.1869 71.7879 36.5069 71.4701C36.8269 71.1523 37.2224 70.9934 37.6935 70.9934H49.2935C49.7669 70.9934 50.1635 71.1534 50.4835 71.4734C50.8035 71.7934 50.9635 72.1901 50.9635 72.6634C50.9635 73.1367 50.8035 73.5323 50.4835 73.8501C50.1635 74.1679 49.768 74.3267 49.2969 74.3267H37.6302ZM55.0069 94.3334C52.6957 94.3334 50.728 93.5223 49.1035 91.9001C47.4791 90.2845 46.6669 88.3179 46.6669 86.0001H42.0535C41.3091 86.0001 40.7146 85.7223 40.2702 85.1667C39.8257 84.6112 39.678 83.9767 39.8269 83.2634L40.8969 79.3267H49.2135C51.0757 79.3267 52.6502 78.6823 53.9369 77.3934C55.2235 76.1045 55.8669 74.5268 55.8669 72.6601C55.8669 71.6379 55.6446 70.6934 55.2002 69.8267C54.7557 68.9601 54.138 68.2423 53.3469 67.6734H59.3969C61.2635 67.6734 62.8413 67.029 64.1302 65.7401C65.4191 64.4512 66.0635 62.8745 66.0635 61.0101C66.0635 59.1456 65.4191 57.5679 64.1302 56.2767C62.8413 54.9856 61.2635 54.3401 59.3969 54.3401H47.7569L48.7702 50.6734C48.9746 49.8001 49.408 49.0812 50.0702 48.5167C50.7257 47.9501 51.518 47.6667 52.4469 47.6667H85.9602C86.8135 47.6667 87.5102 48.009 88.0502 48.6934C88.588 49.3779 88.7602 50.1401 88.5669 50.9801L86.6602 59.3334H90.8969C91.7502 59.3334 92.558 59.5245 93.3202 59.9067C94.0846 60.2867 94.7135 60.8134 95.2069 61.4867L101.197 69.4801C101.681 70.129 101.996 70.8056 102.14 71.5101C102.287 72.2123 102.298 72.9501 102.174 73.7234L100.18 83.8467C100.056 84.4956 99.7402 85.0168 99.2335 85.4101C98.7269 85.8034 98.1513 86.0001 97.5069 86.0001H95.8969C95.8969 88.309 95.088 90.2756 93.4702 91.9001C91.8524 93.5245 89.8857 94.3356 87.5702 94.3334C85.2546 94.3312 83.2869 93.5201 81.6669 91.9001C80.0446 90.2823 79.2335 88.3156 79.2335 86.0001H63.3335C63.3335 88.309 62.5246 90.2756 60.9069 91.9001C59.2891 93.5245 57.3224 94.3356 55.0069 94.3334ZM44.3002 62.6734C43.8269 62.6734 43.4302 62.5134 43.1102 62.1934C42.7902 61.8734 42.6302 61.4768 42.6302 61.0034C42.6302 60.5301 42.7902 60.1345 43.1102 59.8168C43.4302 59.499 43.8257 59.3401 44.2969 59.3401H59.2969C59.7702 59.3401 60.1669 59.5001 60.4869 59.8201C60.8046 60.1401 60.9635 60.5367 60.9635 61.0101C60.9635 61.4834 60.8046 61.879 60.4869 62.1967C60.1691 62.5145 59.7724 62.6734 59.2969 62.6734H44.3002ZM55.0002 91.0001C56.3713 91.0001 57.548 90.5101 58.5302 89.5301C59.5102 88.5479 60.0002 87.3712 60.0002 86.0001C60.0002 84.629 59.5102 83.4523 58.5302 82.4701C57.5502 81.4879 56.3735 80.9979 55.0002 81.0001C53.6269 81.0023 52.4502 81.4923 51.4702 82.4701C50.4902 83.4523 50.0002 84.629 50.0002 86.0001C50.0002 87.3712 50.4902 88.5479 51.4702 89.5301C52.4524 90.5101 53.6291 91.0001 55.0002 91.0001ZM87.5669 91.0001C88.938 91.0001 90.1135 90.5101 91.0935 89.5301C92.0735 88.5479 92.5635 87.3712 92.5635 86.0001C92.5635 84.629 92.0735 83.4523 91.0935 82.4701C90.1135 81.4879 88.9369 80.9979 87.5635 81.0001C86.1902 81.0023 85.0146 81.4923 84.0369 82.4701C83.0546 83.4523 82.5635 84.629 82.5635 86.0001C82.5635 87.3712 83.0535 88.5479 84.0335 89.5301C85.0157 90.5101 86.1935 91.0001 87.5669 91.0001ZM82.9535 75.1667H98.4635L99.0502 72.2001L91.9235 62.6667H85.8635L82.9535 75.1667Z" fill="black"/>
</svg>
