<svg width="141" height="141" viewBox="0 0 141 141" fill="none" xmlns="http://www.w3.org/2000/svg">
<circle cx="70.5" cy="70.5" r="69" fill="white" stroke="#EBEBEB" stroke-width="3"/>
<path fill-rule="evenodd" clip-rule="evenodd" d="M77.5 48.5C77.5 50.4891 76.7098 52.3968 75.3033 53.8033C73.8968 55.2098 71.9891 56 70 56C68.0109 56 66.1032 55.2098 64.6967 53.8033C63.2902 52.3968 62.5 50.4891 62.5 48.5C62.5 46.5109 63.2902 44.6032 64.6967 43.1967C66.1032 41.7902 68.0109 41 70 41C71.9891 41 73.8968 41.7902 75.3033 43.1967C76.7098 44.6032 77.5 46.5109 77.5 48.5ZM43.275 62.25C42.8903 62.2495 42.5108 62.3378 42.1658 62.508C41.8209 62.6782 41.5199 62.9257 41.2862 63.2312C41.0525 63.5367 40.8925 63.892 40.8186 64.2695C40.7447 64.647 40.7588 65.0364 40.86 65.4075L43.75 76C43.75 76.663 44.0134 77.2989 44.4822 77.7678C44.9511 78.2366 45.5869 78.5 46.25 78.5H66.25C66.913 78.5 67.5489 78.2366 68.0177 77.7678C68.4866 77.2989 68.75 76.663 68.75 76C68.75 75.337 68.4866 74.7011 68.0177 74.2322C67.5489 73.7634 66.913 73.5 66.25 73.5H60.5675L58.0025 64.0925C57.8582 63.5632 57.5439 63.0961 57.1079 62.7632C56.6719 62.4302 56.1386 62.2499 55.59 62.25H43.275ZM49.76 82.25H66.25C67.9076 82.25 69.4973 81.5915 70.6694 80.4194C71.8415 79.2473 72.5 77.6576 72.5 76C72.5 74.3424 71.8415 72.7527 70.6694 71.5806C69.4973 70.4085 67.9076 69.75 66.25 69.75H63.4325L61.62 63.105L61.6075 63.06C62.6537 61.4478 64.1422 60.1711 65.8949 59.3825C67.6476 58.5939 69.5904 58.3268 71.4909 58.6132C73.3913 58.8996 75.1691 59.7273 76.6116 60.9973C78.0541 62.2674 79.1003 63.9261 79.625 65.775C78.6377 66.1103 77.7808 66.7473 77.1752 67.5961C76.5696 68.4448 76.2459 69.4624 76.25 70.505V77.285C76.25 79.7175 77.07 82.085 78.47 84.0225C77.8263 84.4952 77.0486 84.7501 76.25 84.75H65.8075L58.1625 96.7625C57.9053 97.1927 57.5644 97.567 57.1601 97.8633C56.7557 98.1595 56.2961 98.3717 55.8083 98.4872C55.3205 98.6028 54.8146 98.6194 54.3203 98.536C53.826 98.4527 53.3534 98.2711 52.9306 98.002C52.5077 97.7328 52.143 97.3817 51.8582 96.9692C51.5733 96.5568 51.3741 96.0914 51.2721 95.6006C51.1702 95.1098 51.1678 94.6036 51.2649 94.1118C51.362 93.62 51.5567 93.1527 51.8375 92.7375L55.3775 87.37C55.6056 87.0246 55.6871 86.6027 55.6041 86.1971C55.5211 85.7916 55.2804 85.4356 54.935 85.2075C54.5895 84.9794 54.1676 84.8979 53.7621 84.9809C53.3565 85.0639 53.0006 85.3046 52.7725 85.65L49.2 91.06C48.5888 92.0204 48.2257 93.1175 48.1433 94.2529C48.0608 95.3883 48.2615 96.5264 48.7275 97.565C48.0497 98.1623 47.179 98.4947 46.2757 98.5013C45.3723 98.5079 44.4969 98.1882 43.8104 97.6009C43.124 97.0136 42.6726 96.1982 42.5393 95.3047C42.4061 94.4112 42.5998 93.4996 43.085 92.7375L49.76 82.25ZM94.925 77.285C94.925 79.335 94.3275 81.09 93.135 82.26L98.5075 89.8725C99.4025 91.3375 100 93.095 100 94.8525V95.145C100 98.365 97.3125 101 94.03 101H77.5C76.8369 101 76.2011 100.737 75.7322 100.268C75.2634 99.7989 75 99.163 75 98.5C75 97.837 75.2634 97.2011 75.7322 96.7322C76.2011 96.2634 76.8369 96 77.5 96H82.3875V82.8475C80.895 81.3825 80 79.3325 80 77.2825V70.5075C79.9996 70.2951 80.0533 70.086 80.1561 69.9001C80.2589 69.7142 80.4073 69.5576 80.5875 69.445C80.7676 69.3324 80.9735 69.2676 81.1856 69.2567C81.3978 69.2457 81.6092 69.289 81.8 69.3825L85.97 71.4275H88.955L93.125 69.3825C93.3157 69.289 93.5272 69.2457 93.7393 69.2567C93.9515 69.2676 94.1573 69.3324 94.3375 69.445C94.5176 69.5576 94.6661 69.7142 94.7689 69.9001C94.8717 70.086 94.9254 70.2951 94.925 70.5075V77.285Z" fill="black"/>
</svg>
