<svg width="44" height="44" viewBox="0 0 44 44" fill="none" xmlns="http://www.w3.org/2000/svg">
<path fill-rule="evenodd" clip-rule="evenodd" d="M19.1839 6.01701C19.512 5.6234 19.919 5.30293 20.3786 5.07627C20.8381 4.84961 21.3401 4.72179 21.8521 4.70106C22.3641 4.68033 22.8748 4.76715 23.3512 4.95592C23.8276 5.14469 24.2591 5.43121 24.618 5.79701L24.816 6.01701L32.0246 14.6667H37.4971C37.8819 14.6659 38.2624 14.7463 38.6139 14.9028C38.9654 15.0593 39.2799 15.2882 39.5367 15.5747C39.7936 15.8611 39.987 16.1986 40.1044 16.565C40.2217 16.9314 40.2604 17.3185 40.2178 17.7008L40.0491 19.1052L39.8658 20.4618L39.7155 21.4775L39.5413 22.5683L39.3433 23.7142L39.1196 24.9022L38.8703 26.114C38.7383 26.7251 38.5965 27.3356 38.445 27.9455C38.0391 29.5553 37.5296 31.1371 36.9196 32.681L36.5145 33.671L36.1221 34.5657L35.7518 35.3613L35.5795 35.717L35.123 36.6153C34.5363 37.7337 33.4289 38.3937 32.2574 38.489L31.9641 38.5H12.0174C11.3765 38.5048 10.7463 38.3354 10.1942 38.0099C9.642 37.6845 9.18863 37.2151 8.88245 36.652L8.45712 35.827L8.12712 35.1487L7.95295 34.7728L7.58628 33.9497C6.749 32.0055 6.06969 29.997 5.55495 27.9437C5.45542 27.545 5.36008 27.1453 5.26895 26.7447L5.00862 25.5567L4.77578 24.3943L4.57045 23.2705L4.38712 22.1943L4.22762 21.1787L4.09195 20.2382L3.92695 18.986L3.80595 17.9667L3.77478 17.6862C3.73686 17.326 3.77094 16.9619 3.87504 16.615C3.97913 16.2681 4.15117 15.9454 4.38114 15.6656C4.61111 15.3858 4.89443 15.1545 5.2146 14.9853C5.53477 14.816 5.88541 14.712 6.24612 14.6795L6.49545 14.6667H11.9753L19.1839 6.01701ZM18.2618 23.3237C18.1378 22.8911 17.859 22.5193 17.4785 22.279C17.0981 22.0386 16.6425 21.9466 16.1987 22.0205C15.7548 22.0943 15.3535 22.3288 15.0714 22.6793C14.7892 23.0299 14.6458 23.4719 14.6685 23.9213L14.6923 24.134L15.6089 29.634L15.6548 29.843C15.7788 30.2756 16.0576 30.6474 16.438 30.8877C16.8185 31.1281 17.274 31.2201 17.7179 31.1462C18.1618 31.0724 18.563 30.8379 18.8452 30.4874C19.1274 30.1368 19.2708 29.6948 19.2481 29.2453L19.2243 29.0327L18.3076 23.5327L18.2618 23.3237ZM27.8006 22.0257C27.3575 21.9518 26.9027 22.0431 26.5225 22.2824C26.1423 22.5217 25.8632 22.8922 25.7381 23.3237L25.6923 23.5327L24.7756 29.0327C24.6991 29.4939 24.8017 29.967 25.0625 30.3551C25.3232 30.7432 25.7224 31.0171 26.1784 31.1206C26.6343 31.2241 27.1126 31.1495 27.5154 30.912C27.9182 30.6745 28.215 30.2921 28.3451 29.843L28.3909 29.634L29.3076 24.134C29.3871 23.6546 29.2731 23.1633 28.9905 22.7679C28.7079 22.3726 28.2799 22.1056 27.8006 22.0257ZM22 8.36368L16.7474 14.6667H27.2524L22 8.36368Z" fill="#F9A149"/>
<path fill-rule="evenodd" clip-rule="evenodd" d="M19.1839 6.01701C19.512 5.6234 19.919 5.30293 20.3786 5.07627C20.8381 4.84961 21.3401 4.72179 21.8521 4.70106C22.3641 4.68033 22.8748 4.76715 23.3512 4.95592C23.8276 5.14469 24.2591 5.43121 24.618 5.79701L24.816 6.01701L32.0246 14.6667H37.4971C37.8819 14.6659 38.2624 14.7463 38.6139 14.9028C38.9654 15.0593 39.2799 15.2882 39.5367 15.5747C39.7936 15.8611 39.987 16.1986 40.1044 16.565C40.2217 16.9314 40.2604 17.3185 40.2178 17.7008L40.0491 19.1052L39.8658 20.4618L39.7155 21.4775L39.5413 22.5683L39.3433 23.7142L39.1196 24.9022L38.8703 26.114C38.7383 26.7251 38.5965 27.3356 38.445 27.9455C38.0391 29.5553 37.5296 31.1371 36.9196 32.681L36.5145 33.671L36.1221 34.5657L35.7518 35.3613L35.5795 35.717L35.123 36.6153C34.5363 37.7337 33.4289 38.3937 32.2574 38.489L31.9641 38.5H12.0174C11.3765 38.5048 10.7463 38.3354 10.1942 38.0099C9.642 37.6845 9.18863 37.2151 8.88245 36.652L8.45712 35.827L8.12712 35.1487L7.95295 34.7728L7.58628 33.9497C6.749 32.0055 6.06969 29.997 5.55495 27.9437C5.45542 27.545 5.36008 27.1453 5.26895 26.7447L5.00862 25.5567L4.77578 24.3943L4.57045 23.2705L4.38712 22.1943L4.22762 21.1787L4.09195 20.2382L3.92695 18.986L3.80595 17.9667L3.77478 17.6862C3.73686 17.326 3.77094 16.9619 3.87504 16.615C3.97913 16.2681 4.15117 15.9454 4.38114 15.6656C4.61111 15.3858 4.89443 15.1545 5.2146 14.9853C5.53477 14.816 5.88541 14.712 6.24612 14.6795L6.49545 14.6667H11.9753L19.1839 6.01701ZM18.2618 23.3237C18.1378 22.8911 17.859 22.5193 17.4785 22.279C17.0981 22.0386 16.6425 21.9466 16.1987 22.0205C15.7548 22.0943 15.3535 22.3288 15.0714 22.6793C14.7892 23.0299 14.6458 23.4719 14.6685 23.9213L14.6923 24.134L15.6089 29.634L15.6548 29.843C15.7788 30.2756 16.0576 30.6474 16.438 30.8877C16.8185 31.1281 17.274 31.2201 17.7179 31.1462C18.1618 31.0724 18.563 30.8379 18.8452 30.4874C19.1274 30.1368 19.2708 29.6948 19.2481 29.2453L19.2243 29.0327L18.3076 23.5327L18.2618 23.3237ZM27.8006 22.0257C27.3575 21.9518 26.9027 22.0431 26.5225 22.2824C26.1423 22.5217 25.8632 22.8922 25.7381 23.3237L25.6923 23.5327L24.7756 29.0327C24.6991 29.4939 24.8017 29.967 25.0625 30.3551C25.3232 30.7432 25.7224 31.0171 26.1784 31.1206C26.6343 31.2241 27.1126 31.1495 27.5154 30.912C27.9182 30.6745 28.215 30.2921 28.3451 29.843L28.3909 29.634L29.3076 24.134C29.3871 23.6546 29.2731 23.1633 28.9905 22.7679C28.7079 22.3726 28.2799 22.1056 27.8006 22.0257ZM22 8.36368L16.7474 14.6667H27.2524L22 8.36368Z" fill="white"/>
</svg>
