<svg width="38" height="38" viewBox="0 0 38 38" fill="none" xmlns="http://www.w3.org/2000/svg">
<rect width="38" height="38" fill="white"/>
<path d="M26.125 5.25C30.726 5.25 34.3338 8.8424 34.334 13.458C34.334 16.2782 33.0661 18.8838 30.7354 21.7354C28.3991 24.5936 25.0468 27.6378 20.96 31.3438V31.3447L19 33.1279L17.041 31.3447L17.04 31.3438C12.9532 27.6378 9.60086 24.5936 7.26465 21.7354C4.93403 18.8839 3.66699 16.2781 3.66699 13.458C3.66716 8.84251 7.27414 5.25017 11.875 5.25C14.4788 5.25 16.9867 6.46489 18.6211 8.36914L19 8.81152L19.3799 8.36914C21.0142 6.46497 23.5213 5.2501 26.125 5.25Z" stroke="#7980D3"/>
</svg>
