<svg width="32" height="30" viewBox="0 0 32 30" fill="none" xmlns="http://www.w3.org/2000/svg">
<path d="M22.958 0.5C27.559 0.5 31.1668 4.0924 31.167 8.70801C31.167 11.5282 29.8991 14.1338 27.5684 16.9854C25.2321 19.8436 21.8799 22.8878 17.793 26.5938V26.5947L15.833 28.3779L13.874 26.5947L13.873 26.5938C9.78622 22.8878 6.43387 19.8436 4.09766 16.9854C1.76703 14.1339 0.5 11.5281 0.5 8.70801C0.500169 4.09251 4.10715 0.500169 8.70801 0.5C11.3119 0.5 13.8197 1.71489 15.4541 3.61914L15.833 4.06152L16.2129 3.61914C17.8472 1.71497 20.3543 0.500101 22.958 0.5Z" stroke="#7980D3"/>
</svg>
